# xmcd CD database file
#
# Track frame offsets:
#	150
#	18400
#	40715
#	53890
#	71218
#	86898
#	104660
#	122140
#	139753
#	155295
#	170653
#	186193
#
# Disc length: 2672 seconds
#
# Revision: 1
# Processed by: cddbd v1.5.2PL0 Copyright (c) Steve Scherf et al.
# Submitted via: CDex 1.70beta2
#
DISCID=ab0a6e0c
DTITLE=Nazan Öncel - Bir Hadise Var
DYEAR=1992
DGENRE=Pop
TTITLE0=Aynı Nakarat
TTITLE1=Gitme Kal Bu Şehirde
TTITLE2=Aşık Değilim Olabilirim
TTITLE3=Leylim Yar
TTITLE4=Mühürledim Seni Kalbime (Bir Hadise Var)
TTITLE5=Hadi Hadi Nazlanma
TTITLE6=Boncuk
TTITLE7=Hani Boyle Olamazdık
TTITLE8=Nokta Nokta
TTITLE9=Ağla Erkeğim Ağla
TTITLE10=Olmaz Ki
TTITLE11=Aynı Nakarat (Remix)
EXTD=YEAR: 1992
EXTT0=
EXTT1=
EXTT2=
EXTT3=
EXTT4=
EXTT5=
EXTT6=
EXTT7=
EXTT8=
EXTT9=
EXTT10=
EXTT11=
PLAYORDER=
